<?xml version="1.0" encoding="utf-8"?>
<!-- Generator: Adobe Illustrator 25.0.0, SVG Export Plug-In . SVG Version: 6.00 Build 0)  -->
<svg version="1.1" id="Layer_1" xmlns="http://www.w3.org/2000/svg" xmlns:xlink="http://www.w3.org/1999/xlink" x="0px" y="0px"
	 viewBox="0 0 441 246" style="enable-background:new 0 0 441 246;" xml:space="preserve">
<style type="text/css">
	.st0{fill:#FFFFFF;}
</style>
<g transform="translate(0.000000,246.000000) scale(0.100000,-0.100000)">
	<path class="st0" d="M1910,1640V849l93,3l92,3l3,788l2,787h-95h-95V1640z"/>
	<path class="st0" d="M2360,1640V849l93,3l92,3l3,788l2,787h-95h-95V1640z"/>
	<path class="st0" d="M1457,2104c-4-4-7-288-7-631V850h95h95l-2,628l-3,627l-85,3C1503,2109,1461,2108,1457,2104z"/>
	<path class="st0" d="M2815,2098c-3-7-4-290-3-628l3-615l93-3l92-3v631v630h-90C2847,2110,2818,2106,2815,2098z"/>
	<path class="st0" d="M1010,1320V849l93,3l92,3v465v465l-92,3l-93,3V1320z"/>
	<path class="st0" d="M3260,1320V849l93,3l92,3v465v465l-92,3l-93,3V1320z"/>
	<path class="st0" d="M560,1165V849l93,3l92,3l3,313l2,312h-95h-95V1165z"/>
	<path class="st0" d="M3710,1165V849l93,3l92,3l3,313l2,312h-95h-95V1165z"/>
	<path class="st0" d="M155,469c-46-13-86-60-92-108c-10-74,27-104,187-153c71-22,75-25,78-55c3-25-2-35-23-49c-32-21-113-15-179,15
		l-46,20l-16-24c-23-35-13-50,43-69c148-51,291-14,309,80c15,81-19,120-137,159c-101,33-129,49-129,75c0,49,83,64,172,30
		c29-11,54-20,54-20c1,0,7,14,14,31c16,37,11,41-64,64C272,481,202,483,155,469z"/>
	<path class="st0" d="M500,435v-35h70h70V215V30h40h40v185v185h70h70v35v35H680H500V435z"/>
	<path class="st0" d="M1008,358c-25-62-67-161-92-221L871,30h48h48l21,50l21,50h100h100l22-50l21-50h49h48l-41,98
		c-22,53-64,151-92,217l-52,120l-54,3l-55,3L1008,358z M1152,280l37-90h-80h-79l16,38c9,20,25,61,36,90c12,28,24,52,27,52
		S1132,329,1152,280z"/>
	<path class="st0" d="M1450,250V30h40h40v46c0,39,6,53,41,95c22,27,45,49,49,49c5,0,35-43,66-95l56-95h49c27,0,49,3,49,6
		c0,4-37,62-81,130l-81,124l82,90l82,90h-55h-55l-93-102c-51-57-96-104-101-106c-4-2-8,44-8,102v106h-40h-40V250z"/>
	<path class="st0" d="M1960,250V30h175h175v35v35h-135h-135v60v60h120h120v35v35h-120h-120v55v55h130h130v35v35h-170h-170V250z"/>
	<path class="st0" d="M2420,250V30h40h40v85v85h115h115v35v35h-115h-115v65v65h125h125v35v35h-165h-165V250z"/>
	<path class="st0" d="M2860,250V30h40h40v220v220h-40h-40V250z"/>
	<path class="st0" d="M3090,250V30h175h175v35v35h-135h-135v60v60h120h120v35v35h-120h-120v55v55h130h130v35v35h-170h-170V250z"/>
	<path class="st0" d="M3550,250V30h155h155v35v35h-115h-115v185v185h-40h-40V250z"/>
	<path class="st0" d="M3970,250V30h103c165,0,237,33,286,128c58,114-12,266-140,302c-19,6-82,10-141,10h-108V250z M4203,386
		c18-7,46-28,62-45c26-28,30-40,30-91s-4-63-30-91c-41-43-83-59-155-59h-60v150v150h60C4143,400,4185,394,4203,386z"/>
</g>
</svg>
