<?xml version="1.0" standalone="no"?>
<!DOCTYPE svg PUBLIC "-//W3C//DTD SVG 20010904//EN"
 "http://www.w3.org/TR/2001/REC-SVG-20010904/DTD/svg10.dtd">
<svg version="1.0" xmlns="http://www.w3.org/2000/svg"
 width="441.000000pt" height="246.000000pt" viewBox="0 0 441.000000 246.000000"
 preserveAspectRatio="xMidYMid meet">

<g transform="translate(0.000000,246.000000) scale(0.100000,-0.100000)"
fill="#000000" stroke="none">
<path d="M1910 1640 l0 -791 93 3 92 3 3 788 2 787 -95 0 -95 0 0 -790z"/>
<path d="M2360 1640 l0 -791 93 3 92 3 3 788 2 787 -95 0 -95 0 0 -790z"/>
<path d="M1457 2104 c-4 -4 -7 -288 -7 -631 l0 -623 95 0 95 0 -2 628 -3 627
-85 3 c-47 1 -89 0 -93 -4z"/>
<path d="M2815 2098 c-3 -7 -4 -290 -3 -628 l3 -615 93 -3 92 -3 0 631 0 630
-90 0 c-63 0 -92 -4 -95 -12z"/>
<path d="M1010 1320 l0 -471 93 3 92 3 0 465 0 465 -92 3 -93 3 0 -471z"/>
<path d="M3260 1320 l0 -471 93 3 92 3 0 465 0 465 -92 3 -93 3 0 -471z"/>
<path d="M560 1165 l0 -316 93 3 92 3 3 313 2 312 -95 0 -95 0 0 -315z"/>
<path d="M3710 1165 l0 -316 93 3 92 3 3 313 2 312 -95 0 -95 0 0 -315z"/>
<path d="M155 469 c-46 -13 -86 -60 -92 -108 -10 -74 27 -104 187 -153 71 -22
75 -25 78 -55 3 -25 -2 -35 -23 -49 -32 -21 -113 -15 -179 15 l-46 20 -16 -24
c-23 -35 -13 -50 43 -69 148 -51 291 -14 309 80 15 81 -19 120 -137 159 -101
33 -129 49 -129 75 0 49 83 64 172 30 29 -11 54 -20 54 -20 1 0 7 14 14 31 16
37 11 41 -64 64 -54 16 -124 18 -171 4z"/>
<path d="M500 435 l0 -35 70 0 70 0 0 -185 0 -185 40 0 40 0 0 185 0 185 70 0
70 0 0 35 0 35 -180 0 -180 0 0 -35z"/>
<path d="M1008 358 c-25 -62 -67 -161 -92 -221 l-45 -107 48 0 48 0 21 50 21
50 100 0 100 0 22 -50 21 -50 49 0 48 0 -41 98 c-22 53 -64 151 -92 217 l-52
120 -54 3 -55 3 -47 -113z m144 -78 l37 -90 -80 0 -79 0 16 38 c9 20 25 61 36
90 12 28 24 52 27 52 3 0 23 -41 43 -90z"/>
<path d="M1450 250 l0 -220 40 0 40 0 0 46 c0 39 6 53 41 95 22 27 45 49 49
49 5 0 35 -43 66 -95 l56 -95 49 0 c27 0 49 3 49 6 0 4 -37 62 -81 130 l-81
124 82 90 82 90 -55 0 -55 0 -93 -102 c-51 -57 -96 -104 -101 -106 -4 -2 -8
44 -8 102 l0 106 -40 0 -40 0 0 -220z"/>
<path d="M1960 250 l0 -220 175 0 175 0 0 35 0 35 -135 0 -135 0 0 60 0 60
120 0 120 0 0 35 0 35 -120 0 -120 0 0 55 0 55 130 0 130 0 0 35 0 35 -170 0
-170 0 0 -220z"/>
<path d="M2420 250 l0 -220 40 0 40 0 0 85 0 85 115 0 115 0 0 35 0 35 -115 0
-115 0 0 65 0 65 125 0 125 0 0 35 0 35 -165 0 -165 0 0 -220z"/>
<path d="M2860 250 l0 -220 40 0 40 0 0 220 0 220 -40 0 -40 0 0 -220z"/>
<path d="M3090 250 l0 -220 175 0 175 0 0 35 0 35 -135 0 -135 0 0 60 0 60
120 0 120 0 0 35 0 35 -120 0 -120 0 0 55 0 55 130 0 130 0 0 35 0 35 -170 0
-170 0 0 -220z"/>
<path d="M3550 250 l0 -220 155 0 155 0 0 35 0 35 -115 0 -115 0 0 185 0 185
-40 0 -40 0 0 -220z"/>
<path d="M3970 250 l0 -220 103 0 c165 0 237 33 286 128 58 114 -12 266 -140
302 -19 6 -82 10 -141 10 l-108 0 0 -220z m233 136 c18 -7 46 -28 62 -45 26
-28 30 -40 30 -91 0 -51 -4 -63 -30 -91 -41 -43 -83 -59 -155 -59 l-60 0 0
150 0 150 60 0 c33 0 75 -6 93 -14z"/>
</g>
</svg>
